<svg width="30" height="30" viewBox="0 0 30 30" fill="none" xmlns="http://www.w3.org/2000/svg">
<rect width="30" height="30" fill="black"/>
<path d="M21.0004 6C21.7557 6.00012 22.4955 6.21407 23.1342 6.61712C23.773 7.02016 24.2846 7.59582 24.6099 8.27749C24.9351 8.95917 25.0607 9.719 24.9721 10.4691C24.8836 11.2192 24.5844 11.9288 24.1094 12.516L23.9994 12.642L24.0004 21C24.0004 21.7652 23.708 22.5015 23.1831 23.0583C22.6581 23.615 21.9403 23.9501 21.1764 23.995L21.0004 24H9.00036C8.20471 24 7.44165 23.6839 6.87904 23.1213C6.31643 22.5587 6.00036 21.7956 6.00036 21V12.644L5.88436 12.508C5.48174 12.0079 5.20539 11.4183 5.07868 10.7889C4.95197 10.1595 4.97861 9.50891 5.15636 8.892L5.22336 8.682C5.75536 7.157 7.15336 6.102 8.82436 6.005L20.9034 6.006L21.0004 6Z" fill="white"/>
</svg>
